<svg xmlns="http://www.w3.org/2000/svg" width="9" height="9" viewBox="0 0 9 9" fill="none">
  <path d="M 8.812 0.264 C 8.932 0.432 9 0.661 9 0.9 C 9 1.139 8.932 1.367 8.812 1.536 L 3.664 8.736 C 3.543 8.905 3.38 9 3.209 9 C 3.039 9 2.875 8.905 2.754 8.736 L 0.181 5.136 C 0.063 4.967 -0.001 4.739 0 4.503 C 0.001 4.267 0.069 4.042 0.188 3.875 C 0.308 3.708 0.469 3.613 0.638 3.611 C 0.807 3.609 0.969 3.7 1.09 3.864 L 3.209 6.827 L 7.902 0.264 C 8.022 0.095 8.186 0 8.357 0 C 8.527 0 8.691 0.095 8.812 0.264 Z" fill="currentColor" fill-rule="evenodd"></path>
</svg>