<svg xmlns="http://www.w3.org/2000/svg" width="18" height="19" viewBox="0 0 18 19" fill="none">
  <path d="M 13.462 1.142 C 13.498 1.038 13.515 0.927 13.511 0.815 C 13.507 0.704 13.482 0.595 13.438 0.493 C 13.393 0.392 13.331 0.301 13.253 0.226 C 13.176 0.15 13.085 0.091 12.986 0.052 C 12.887 0.014 12.781 -0.004 12.676 0.001 C 12.57 0.005 12.466 0.031 12.37 0.078 C 12.177 0.172 12.026 0.344 11.952 0.555 C 11.359 2.251 11.396 4.121 12.055 5.789 L 12.055 5.791 C 12.381 6.607 12.517 7.494 12.452 8.377 C 12.387 9.261 12.123 10.115 11.682 10.869 L 7.626 6.589 C 8.268 6.092 9.005 5.751 9.786 5.59 C 9.992 5.544 10.174 5.415 10.291 5.229 C 10.408 5.043 10.451 4.817 10.411 4.598 C 10.37 4.379 10.25 4.186 10.076 4.06 C 9.902 3.934 9.687 3.885 9.479 3.924 C 8.127 4.202 6.882 4.896 5.902 5.918 L 5.895 5.925 C 5.121 6.751 4.547 7.761 4.218 8.869 C 3.889 9.977 3.817 11.152 4.006 12.295 C 2.842 12.072 1.643 12.179 0.531 12.603 C 0.432 12.641 0.341 12.699 0.263 12.774 C 0.185 12.849 0.121 12.94 0.076 13.041 C 0.031 13.141 0.006 13.251 0.001 13.362 C -0.004 13.473 0.012 13.584 0.048 13.689 C 0.083 13.794 0.139 13.89 0.21 13.973 C 0.281 14.055 0.367 14.122 0.462 14.169 C 0.558 14.217 0.661 14.244 0.767 14.249 C 0.872 14.254 0.978 14.237 1.077 14.199 C 2.206 13.77 3.441 13.773 4.568 14.206 C 4.957 15.388 4.954 16.68 4.551 17.865 C 4.516 17.97 4.5 18.081 4.505 18.193 C 4.51 18.304 4.536 18.413 4.581 18.514 C 4.626 18.615 4.69 18.705 4.768 18.78 C 4.846 18.855 4.937 18.913 5.037 18.95 C 5.136 18.988 5.242 19.004 5.347 18.999 C 5.453 18.994 5.556 18.966 5.652 18.919 C 5.747 18.871 5.833 18.804 5.904 18.722 C 5.975 18.639 6.03 18.543 6.066 18.438 C 6.644 16.733 6.592 14.86 5.919 13.194 C 5.594 12.371 5.459 11.477 5.528 10.589 C 5.596 9.7 5.865 8.841 6.313 8.084 L 10.383 12.377 C 9.734 12.893 8.98 13.247 8.177 13.412 C 8.073 13.434 7.975 13.476 7.887 13.538 C 7.799 13.6 7.723 13.679 7.664 13.771 C 7.605 13.864 7.564 13.968 7.543 14.077 C 7.522 14.186 7.522 14.298 7.542 14.408 C 7.562 14.517 7.603 14.621 7.661 14.714 C 7.72 14.807 7.795 14.887 7.883 14.949 C 8.06 15.074 8.277 15.121 8.486 15.078 C 9.845 14.797 11.094 14.098 12.076 13.069 L 12.081 13.064 C 12.854 12.239 13.429 11.232 13.759 10.126 C 14.088 9.02 14.162 7.846 13.974 6.704 C 15.14 6.928 16.35 6.826 17.483 6.397 C 17.679 6.318 17.839 6.161 17.927 5.959 C 18.015 5.757 18.024 5.527 17.953 5.318 C 17.881 5.109 17.735 4.938 17.546 4.841 C 17.356 4.744 17.138 4.73 16.938 4.801 C 15.799 5.233 14.553 5.23 13.415 4.794 C 13.033 3.608 13.049 2.319 13.46 1.144" fill="currentColor" fill-rule="evenodd"></path>
</svg>