<svg xmlns="http://www.w3.org/2000/svg" width="13" height="14" viewBox="0 0 13 14" fill="none">
  <path d="M 0 5.701 C 0 2.552 2.91 0 6.5 0 C 10.09 0 13 2.552 13 5.701 C 13 8.824 10.926 12.469 7.689 13.772 C 7.313 13.923 6.908 14 6.5 14 C 6.092 14 5.687 13.923 5.311 13.772 C 2.074 12.469 0 8.823 0 5.701 Z M 6.5 7.875 C 6.993 7.875 7.465 7.691 7.813 7.362 C 8.161 7.034 8.357 6.589 8.357 6.125 C 8.357 5.661 8.161 5.216 7.813 4.888 C 7.465 4.559 6.993 4.375 6.5 4.375 C 6.007 4.375 5.535 4.559 5.187 4.888 C 4.839 5.216 4.643 5.661 4.643 6.125 C 4.643 6.589 4.839 7.034 5.187 7.362 C 5.535 7.691 6.007 7.875 6.5 7.875 Z" fill="currentColor" fill-rule="evenodd"></path>
</svg>