<svg xmlns="http://www.w3.org/2000/svg" width="15.717" height="10.916" viewBox="0 0 15.717 10.916" fill="none">
  <path d="M 7.859 0 C 3.403 0 0.728 2.671 0.09 3.388 C 0.044 3.44 0.014 3.504 0.004 3.573 C -0.006 3.642 0.003 3.713 0.032 3.776 L 2.932 10.663 C 3.025 10.885 3.295 10.977 3.512 10.873 C 4.226 10.532 5.83 9.896 7.859 9.896 C 9.887 9.896 11.491 10.532 12.205 10.874 C 12.422 10.977 12.692 10.885 12.785 10.663 L 15.685 3.776 C 15.714 3.713 15.723 3.642 15.713 3.573 C 15.703 3.504 15.673 3.44 15.627 3.388 C 14.989 2.671 12.314 0 7.859 0 Z" fill="currentColor" fill-rule="nonzero"></path>
  <path d="M 0.09 3.388 L -0.657 2.723 L -0.662 2.728 L 0.09 3.388 Z M 0.032 3.776 L 0.953 3.388 C 0.951 3.381 0.948 3.375 0.945 3.368 L 0.032 3.776 Z M 2.932 10.663 L 3.853 10.275 L 3.853 10.274 L 2.932 10.663 Z M 3.512 10.873 L 3.942 11.776 L 3.943 11.776 L 3.512 10.873 Z M 12.205 10.874 L 11.774 11.776 L 11.776 11.777 L 12.205 10.874 Z M 12.785 10.663 L 11.864 10.274 L 11.864 10.275 L 12.785 10.663 Z M 15.685 3.776 L 14.772 3.368 C 14.769 3.375 14.767 3.381 14.764 3.388 L 15.685 3.776 Z M 15.627 3.388 L 16.379 2.728 L 16.374 2.723 L 15.627 3.388 Z M 7.859 0 L 7.859 -1 C 2.983 -1 0.058 1.919 -0.657 2.723 L 0.09 3.388 L 0.837 4.052 C 1.397 3.423 3.822 1 7.859 1 L 7.859 0 Z M 0.09 3.388 L -0.662 2.728 C -0.834 2.925 -0.946 3.166 -0.985 3.424 L 0.004 3.573 L 0.993 3.722 C 0.975 3.843 0.923 3.955 0.842 4.047 L 0.09 3.388 Z M 0.004 3.573 L -0.985 3.424 C -1.024 3.682 -0.988 3.946 -0.881 4.184 L 0.032 3.776 L 0.945 3.368 C 0.994 3.479 1.011 3.602 0.993 3.722 L 0.004 3.573 Z M 0.032 3.776 L -0.89 4.164 L 2.01 11.051 L 2.932 10.663 L 3.853 10.274 L 0.953 3.388 L 0.032 3.776 Z M 2.932 10.663 L 2.01 11.05 C 2.341 11.837 3.248 12.107 3.942 11.776 L 3.512 10.873 L 3.082 9.97 C 3.341 9.847 3.709 9.932 3.853 10.275 L 2.932 10.663 Z M 3.512 10.873 L 3.943 11.776 C 4.579 11.472 6.032 10.896 7.859 10.896 L 7.859 9.896 L 7.859 8.896 C 5.629 8.896 3.873 9.593 3.082 9.971 L 3.512 10.873 Z M 7.859 9.896 L 7.859 10.896 C 9.685 10.896 11.138 11.472 11.774 11.776 L 12.205 10.874 L 12.636 9.971 C 11.844 9.593 10.088 8.896 7.859 8.896 L 7.859 9.896 Z M 12.205 10.874 L 11.776 11.777 C 12.47 12.106 13.376 11.837 13.707 11.05 L 12.785 10.663 L 11.864 10.275 C 12.008 9.932 12.375 9.848 12.634 9.97 L 12.205 10.874 Z M 12.785 10.663 L 13.707 11.051 L 16.607 4.164 L 15.685 3.776 L 14.764 3.388 L 11.864 10.274 L 12.785 10.663 Z M 15.685 3.776 L 16.598 4.184 C 16.705 3.946 16.741 3.682 16.702 3.424 L 15.713 3.573 L 14.724 3.722 C 14.706 3.602 14.723 3.479 14.772 3.368 L 15.685 3.776 Z M 15.713 3.573 L 16.702 3.424 C 16.663 3.166 16.551 2.925 16.379 2.728 L 15.627 3.388 L 14.875 4.047 C 14.795 3.955 14.742 3.843 14.724 3.722 L 15.713 3.573 Z M 15.627 3.388 L 16.374 2.723 C 15.659 1.919 12.734 -1 7.859 -1 L 7.859 0 L 7.859 1 C 11.895 1 14.32 3.423 14.88 4.052 L 15.627 3.388 Z" fill="currentColor" fill-rule="nonzero"></path>
</svg>